Coordinates
version=1
nRows=9
nColumns=24
inDegrees=yes

Units are S.I. units (second, meters, Newtons, ...)
Angles are in degrees.

endheader
time	pelvis_tilt	pelvis_list	pelvis_rotation	pelvis_tx	pelvis_ty	pelvis_tz	hip_flexion_r	hip_adduction_r	hip_rotation_r	knee_angle_r	ankle_angle_r	subtalar_angle_r	mtp_angle_r	hip_flexion_l	hip_adduction_l	hip_rotation_l	knee_angle_l	ankle_angle_l	subtalar_angle_l	mtp_angle_l	lumbar_extension	lumbar_bending	lumbar_rotation
      1.22066667	     -0.36264928	      9.53482755	     -4.74912095	      0.16088092	      1.00451561	      0.31193526	     15.18965140	    -12.35227408	      0.29937586	    -68.13881837	     -6.85919219	     -3.88015678	      9.29715621	      8.84227827	     15.30963707	      5.64232116	    -14.38537841	      4.20249950	    -19.20891536	     -1.34710487	    -12.85442782	     -4.73534304	     -0.20018545
      1.22483333	     -0.34300109	      9.34436176	     -4.78910670	      0.16591041	      1.00547159	      0.31189210	     15.71156495	    -12.06942908	      0.33135560	    -67.89148793	     -5.91464782	     -4.14294648	      9.03619549	      8.26270486	     15.13237055	      5.78503272	    -13.94413318	      4.19177827	    -19.26779381	     -1.42263297	    -12.90260972	     -4.44522196	     -0.43381817
      1.22900000	     -0.36361232	      9.14599183	     -4.82427600	      0.17091824	      1.00634524	      0.31188206	     16.26660287	    -11.76178953	      0.36068913	    -67.58905803	     -5.00805207	     -4.49018873	      8.98239629	      7.75051416	     14.93293641	      5.84959116	    -13.54779588	      4.22042804	    -19.22210844	     -1.44042698	    -12.90043998	     -4.20107105	     -0.50048091
      1.23316667	     -0.28758693	      8.95526935	     -4.86867121	      0.17594340	      1.00735767	      0.31182860	     16.69445276	    -11.48069707	      0.37463870	    -67.20963905	     -4.06522529	     -4.69696918	      5.33042727	      7.08147036	     14.76717928	      6.07507609	    -13.03792340	      4.09287479	    -19.45003336	     -2.48992326	    -13.03487260	     -3.90364416	     -0.73697038
      1.23733333	     -0.32475169	      8.73340818	     -4.85974811	      0.18094337	      1.00817727	      0.31176114	     17.21294676	    -11.14703310	      0.35724907	    -66.76194690	     -3.21965301	     -4.98641601	      5.30318004	      6.58834079	     14.54687021	      6.19794069	    -12.66318768	      4.19079567	    -19.36920828	     -2.49156040	    -13.02221172	     -3.56049210	     -1.03291303
      1.24150000	     -0.29085346	      8.52260710	     -4.86893576	      0.18596858	      1.00908896	      0.31172335	     17.63602035	    -10.83178784	      0.33508512	    -66.24049686	     -2.40443926	     -5.31017785	      5.26024581	      6.00423984	     14.34076579	      6.31036600	    -12.24467625	      4.20087151	    -19.35314347	     -2.50244454	    -13.09039688	     -3.25978884	     -1.25606317
      1.24566667	     -0.32477928	      8.31929776	     -4.86413825	      0.19096403	      1.00983693	      0.31166591	     18.12674436	    -10.51568407	      0.31252704	    -65.68234883	     -1.57899624	     -5.63547593	      5.23923447	      5.51732783	     14.13647258	      6.39889145	    -11.87098959	      4.21289285	    -19.32282548	     -2.51024025	    -13.09279490	     -2.97984689	     -1.37144276
      1.24983333	     -0.27679289	      8.08584777	     -4.85433984	      0.19599761	      1.01072719	      0.31160809	     18.48482883	    -10.17562516	      0.26524720	    -65.02095248	     -0.86997080	     -5.95711126	      5.16303548	      4.90237733	     13.91047214	      6.58272301	    -11.42827251	      4.22033445	    -19.35928600	     -2.53321416	    -13.18126119	     -2.61964601	     -1.69404751
      1.25400000	     -0.27289128	      7.86051109	     -4.83078207	      0.20101100	      1.01150597	      0.31156286	     18.87621460	     -9.83587944	      0.21580828	    -64.31209043	     -0.12613926	     -6.27724359	      5.09259622	      4.36586802	     13.68425010	      6.71164037	    -11.04406464	      4.21946056	    -19.37052975	     -2.55600367	    -13.22071721	     -2.32772195	     -1.89619754
